<svg aria-hidden="true" style="position: absolute; width: 0; height: 0; overflow: hidden;" version="1.1" xmlns="http://www.w3.org/2000/svg" xmlns:xlink="http://www.w3.org/1999/xlink">
<defs>
<symbol id="icon-map" viewBox="0 0 16 16">
<path d="M5.31 1.773c-0.257 0.059-0.405 0.136-1.999 1.049-1.072 0.614-1.519 0.885-1.634 0.988-0.274 0.247-0.483 0.587-0.601 0.978-0.045 0.149-0.049 0.377-0.057 3.453-0.006 2.251 0 3.401 0.020 3.634 0.053 0.62 0.241 1.041 0.603 1.354 0.168 0.151 0.375 0.262 0.603 0.317l0.010 0.002c0.353 0.090 0.725 0.056 1.143-0.105 0.107-0.041 0.595-0.302 1.084-0.581s0.937-0.521 0.994-0.54c0.065-0.022 0.187-0.030 0.333-0.022l0.23 0.011 1.847 0.925c1.299 0.651 1.908 0.942 2.053 0.982 0.397 0.109 0.917 0.069 1.285-0.099 0.282-0.129 3.087-1.749 3.226-1.863 0.214-0.175 0.365-0.373 0.512-0.673 0.223-0.453 0.213-0.233 0.203-4.185l-0.008-3.464-0.061-0.226c-0.267-1.003-1.044-1.476-2.031-1.237-0.257 0.062-0.532 0.199-1.421 0.707-0.441 0.253-0.851 0.475-0.909 0.495-0.114 0.039-0.411 0.049-0.539 0.019-0.043-0.011-0.89-0.425-1.881-0.92s-1.879-0.927-1.973-0.958c-0.225-0.076-0.783-0.098-1.034-0.041zM7.94 3.703c0.935 0.467 1.775 0.877 1.867 0.91l0.167 0.061v4.236c0 2.33-0.006 4.237-0.013 4.237s-0.779-0.383-1.713-0.85c-0.935-0.467-1.775-0.877-1.867-0.91l-0.167-0.061v-4.236c0-2.33 0.006-4.237 0.013-4.237s0.779 0.383 1.713 0.85zM5.2 7.127v4.221l-0.173 0.076c-0.096 0.041-0.568 0.3-1.051 0.575s-0.947 0.521-1.033 0.549c-0.341 0.109-0.629 0.030-0.77-0.212-0.15-0.256-0.148-0.193-0.14-3.902l0.007-3.408 0.085-0.173c0.047-0.095 0.127-0.214 0.179-0.264 0.079-0.077 2.814-1.675 2.875-1.68 0.011-0.001 0.020 1.897 0.020 4.219zM13.813 3.467c0.112 0.057 0.163 0.111 0.235 0.253 0.113 0.227 0.115 0.269 0.107 3.853l-0.008 3.427-0.080 0.157c-0.054 0.1-0.116 0.187-0.188 0.265l0.001-0.001c-0.071 0.071-0.539 0.353-1.387 0.838-2.97 1.606-3.425 1.87-3.88 2.135l2.486-1.338-0.113 0.065v-8.477l0.125-0.043c0.069-0.023 0.468-0.237 0.887-0.475s0.842-0.476 0.941-0.531c0.372-0.205 0.643-0.245 0.874-0.129z"></path>
</symbol>
<symbol id="icon-sms" viewBox="0 0 16 16">
<path d="M4.133 1.857c-0.979 0.102-1.681 0.397-2.255 0.947-0.607 0.582-0.936 1.347-1.023 2.377-0.039 0.459-0.039 5.135 0 5.62 0.083 1.042 0.411 1.807 1.029 2.401 0.491 0.47 1.068 0.747 1.875 0.897 0.235 0.044 0.537 0.047 4.24 0.047s4.005-0.003 4.24-0.047c0.842-0.157 1.416-0.441 1.922-0.949 0.601-0.605 0.899-1.321 0.983-2.363 0.037-0.455 0.037-5.119 0-5.575-0.085-1.056-0.41-1.819-1.024-2.408-0.501-0.481-1.026-0.733-1.881-0.903-0.206-0.041-0.585-0.045-4.12-0.050-2.141-0.002-3.935 0-3.987 0.005zM11.657 2.853c0.838 0.061 1.346 0.258 1.783 0.693 0.341 0.339 0.52 0.689 0.645 1.255l0.061 0.278v5.84l-0.061 0.278c-0.068 0.323-0.178 0.609-0.326 0.87l0.008-0.015c-0.124 0.214-0.501 0.595-0.709 0.718-0.325 0.191-0.771 0.322-1.278 0.375-0.33 0.035-7.23 0.035-7.56 0-0.507-0.053-0.953-0.185-1.278-0.375-0.209-0.123-0.585-0.504-0.709-0.718-0.14-0.247-0.25-0.533-0.315-0.836l-0.004-0.020-0.061-0.278v-5.84l0.061-0.278c0.125-0.567 0.305-0.916 0.645-1.255 0.423-0.422 0.96-0.637 1.729-0.692 0.43-0.031 6.943-0.032 7.369-0.001zM4.512 5.523c-0.125 0.037-0.29 0.213-0.326 0.345-0.011 0.039-0.017 0.085-0.017 0.131 0 0.094 0.025 0.182 0.070 0.258l-0.001-0.002c0.026 0.043 0.568 0.496 1.205 1.007 1.028 0.825 1.188 0.943 1.425 1.058 0.756 0.364 1.672 0.341 2.388-0.060 0.255-0.142 2.465-1.919 2.523-2.026 0.031-0.066 0.050-0.143 0.050-0.225 0-0.099-0.027-0.192-0.074-0.271l0.001 0.003c-0.105-0.159-0.242-0.234-0.422-0.231-0.002-0-0.005-0-0.007-0-0.072 0-0.141 0.013-0.205 0.037l0.004-0.001c-0.034 0.018-0.544 0.419-1.133 0.89s-1.134 0.895-1.211 0.941c-0.295 0.179-0.793 0.246-1.164 0.157-0.301-0.071-0.459-0.179-1.535-1.042-0.26-0.215-0.633-0.512-1.010-0.804l-0.137-0.102c-0.082-0.049-0.182-0.078-0.288-0.078-0.047 0-0.093 0.006-0.137 0.017l0.004-0.001z"></path>
</symbol>
<symbol id="icon-call" viewBox="0 0 16 16">
<path d="M3.547 0.845c-0.381 0.029-0.849 0.206-1.196 0.453-0.203 0.145-0.581 0.517-0.757 0.745-0.83 1.080-0.982 2.532-0.435 4.156 0.69 2.047 2.513 4.456 4.815 6.361 0.963 0.797 1.828 1.369 2.76 1.825 1.135 0.555 1.931 0.771 2.853 0.771 1.057-0.001 1.882-0.313 2.595-0.984 0.291-0.267 0.53-0.585 0.703-0.941l0.008-0.019c0.201-0.418 0.239-0.572 0.24-0.973 0-0.279-0.010-0.368-0.065-0.545-0.079-0.258-0.265-0.55-0.443-0.699-0.225-0.187-2.44-1.75-2.65-1.869-0.525-0.299-1.011-0.337-1.481-0.116-0.274 0.129-0.458 0.269-0.855 0.649l-0.322 0.309-0.109-0.061c-0.715-0.407-2.514-2.189-3.078-3.051l-0.129-0.196 0.31-0.324c0.363-0.379 0.541-0.605 0.649-0.829 0.213-0.436 0.209-0.832-0.010-1.307-0.109-0.236-0.127-0.263-1.081-1.615-0.855-1.211-1.011-1.393-1.335-1.553-0.245-0.123-0.534-0.194-0.839-0.194-0.052 0-0.103 0.002-0.154 0.006l0.007-0zM3.975 1.881c0.063 0.022 0.153 0.069 0.199 0.104 0.105 0.081 1.698 2.317 1.833 2.575 0.196 0.373 0.143 0.5-0.487 1.157-0.453 0.474-0.517 0.585-0.519 0.896-0.001 0.318 0.106 0.559 0.456 1.033 0.407 0.55 1.471 1.677 2.169 2.299 0.603 0.537 1.151 0.911 1.465 1.003 0.187 0.055 0.45 0.039 0.621-0.037 0.085-0.037 0.263-0.188 0.555-0.469 0.63-0.604 0.775-0.666 1.135-0.485 0.101 0.051 0.729 0.479 1.395 0.953 1.402 0.997 1.322 0.916 1.322 1.341 0 0.253-0.005 0.277-0.101 0.477-0.354 0.742-1.035 1.243-1.893 1.393-0.329 0.057-0.963 0.037-1.34-0.044-2.17-0.461-5.063-2.641-7.098-5.346-0.791-1.053-1.413-2.212-1.663-3.099-0.175-0.623-0.229-1.275-0.148-1.763 0.093-0.556 0.273-0.945 0.636-1.367 0.448-0.523 1.036-0.774 1.461-0.624z"></path>
</symbol>
</defs>
</svg>
