<svg aria-hidden="true" style="position: absolute; width: 0; height: 0; overflow: hidden;" version="1.1" xmlns="http://www.w3.org/2000/svg" xmlns:xlink="http://www.w3.org/1999/xlink">
<defs>
<symbol id="icon-global-edit" viewBox="0 0 16 16">
<path d="M7.707 0.844c-1.526 0.067-2.916 0.6-4.045 1.458l0.018-0.013c-0.405 0.304-1.094 0.993-1.397 1.398-0.9 1.181-1.442 2.678-1.442 4.3 0 0.152 0.005 0.303 0.014 0.453l-0.001-0.021c0.083 1.478 0.607 2.819 1.442 3.91l-0.013-0.017c0.304 0.409 0.989 1.094 1.404 1.404 0.898 0.682 1.985 1.163 3.168 1.355l0.042 0.006c0.4 0.062 1.063 0.097 1.219 0.064 0.432-0.092 0.51-0.705 0.116-0.906-0.090-0.046-0.185-0.061-0.511-0.078-0.361-0.013-0.703-0.057-1.035-0.128l0.039 0.007c-0.2-0.041-0.244-0.066-0.245-0.14 0-0.020-0.053-0.206-0.118-0.413-0.201-0.641-0.442-1.594-0.509-2.015l-0.019-0.117 0.183 0.018c0.868 0.085 2.020 0.122 2.161 0.068 0.183-0.077 0.31-0.255 0.31-0.463 0-0.002-0-0.004-0-0.006v0c0-0.164-0.058-0.276-0.203-0.393l-0.101-0.082-0.779-0.033c-0.682-0.029-1.522-0.093-1.687-0.129-0.051-0.011-0.059-0.047-0.101-0.472-0.057-0.547-0.090-1.181-0.090-1.823 0-0.278 0.006-0.554 0.018-0.829l-0.001 0.039c0.022-0.468 0.050-0.872 0.087-1.274l-0.008 0.106 0.044-0.413 0.426-0.044c0.572-0.063 1.235-0.099 1.906-0.099 0.651 0 1.294 0.034 1.927 0.1l-0.079-0.007c0.44 0.042 0.475 0.050 0.486 0.101 0.036 0.167 0.095 0.949 0.121 1.59 0.016 0.402 0.035 0.771 0.042 0.819 0.015 0.102 0.143 0.257 0.261 0.318 0.064 0.026 0.138 0.041 0.216 0.041s0.15-0.015 0.218-0.041l-0.004 0.001c0.11-0.061 0.197-0.153 0.249-0.264l0.002-0.004c0.054-0.141 0.017-1.293-0.068-2.161l-0.018-0.183 0.117 0.019c0.411 0.066 1.352 0.302 2.011 0.506 0.205 0.063 0.405 0.122 0.443 0.131 0.063 0.014 0.073 0.036 0.112 0.236 0.078 0.396 0.1 0.58 0.123 1.008 0.019 0.364 0.030 0.435 0.081 0.517 0.231 0.374 0.813 0.287 0.903-0.135 0.033-0.156-0.002-0.819-0.064-1.219-0.199-1.225-0.68-2.312-1.375-3.228l0.013 0.018c-0.304-0.406-0.994-1.097-1.396-1.398-0.958-0.73-2.131-1.228-3.408-1.389l-0.035-0.004c-0.295-0.034-0.637-0.054-0.984-0.054-0.065 0-0.131 0.001-0.196 0.002l0.010-0zM8.667 1.867c0.125 0.015 0.361 0.053 0.527 0.083 0.283 0.053 0.301 0.060 0.316 0.126 0.009 0.039 0.068 0.239 0.131 0.444 0.192 0.625 0.42 1.531 0.508 2.024l0.019 0.104-0.741-0.068c-0.455-0.042-2.399-0.042-2.854 0l-0.739 0.068 0.019-0.117c0.066-0.411 0.302-1.352 0.506-2.011 0.063-0.205 0.122-0.405 0.131-0.444 0.015-0.066 0.033-0.073 0.316-0.126 0.166-0.031 0.385-0.067 0.487-0.080 0.212-0.016 0.459-0.026 0.708-0.026 0.234 0 0.467 0.008 0.697 0.025l-0.031-0.002zM10.958 2.59c0.827 0.442 1.634 1.187 2.209 2.039 0.126 0.188 0.391 0.675 0.375 0.691-0.156-0.028-0.29-0.061-0.419-0.101l0.023 0.006c-0.374-0.11-0.918-0.238-1.47-0.348l-0.147-0.024-0.325-0.060-0.058-0.323c-0.091-0.501-0.396-1.784-0.471-1.979-0.022-0.058 0.008-0.048 0.283 0.099zM5.306 2.513c0 0.019-0.048 0.214-0.108 0.434-0.106 0.369-0.23 0.905-0.335 1.448l-0.023 0.142-0.045 0.257-0.324 0.059c-0.417 0.076-1.126 0.239-1.618 0.372-0.104 0.033-0.237 0.065-0.373 0.090l-0.023 0.004c0.041-0.106 0.084-0.195 0.134-0.28l-0.005 0.009c0.515-0.966 1.428-1.889 2.401-2.428 0.261-0.144 0.32-0.164 0.319-0.107zM4.628 6.047l-0.044 0.486c-0.021 0.323-0.036 0.718-0.042 1.116l-0 0.018c-0.015 0.831 0.006 1.433 0.075 2.154 0.017 0.172 0.024 0.321 0.015 0.329-0.039 0.039-1.349-0.272-2.030-0.483-0-0.007-0.163-0.057-0.325-0.105l-0.161-0.040-0.11-0.029-0.056-0.3c-0.070-0.331-0.111-0.71-0.111-1.099 0-0.033 0-0.066 0.001-0.099l-0 0.005c0-0.475 0.023-0.723 0.11-1.194 0.053-0.283 0.060-0.301 0.126-0.316 0.039-0.009 0.239-0.068 0.444-0.131 0.51-0.157 0.988-0.285 1.48-0.396 0.717-0.16 0.652-0.169 0.628 0.084zM13.17 9.678c-0.336 0.107-0.422 0.182-1.854 1.613-1.462 1.46-1.463 1.46-1.541 1.809-0.071 0.318-0.155 1.040-0.142 1.232 0.010 0.225 0.11 0.424 0.264 0.564l0.001 0.001c0.274 0.262 0.483 0.293 1.26 0.184 0.537-0.075 0.725-0.126 0.915-0.25 0.066-0.043 0.701-0.658 1.412-1.368 1.375-1.372 1.505-1.522 1.608-1.854 0.035-0.113 0.055-0.242 0.055-0.377 0-0.271-0.081-0.522-0.221-0.732l0.003 0.005c-0.179-0.253-0.391-0.467-0.632-0.644l-0.008-0.005c-0.333-0.22-0.771-0.29-1.12-0.178zM13.701 10.664c0.189 0.096 0.459 0.427 0.459 0.562 0 0.092-0.094 0.246-0.233 0.381l-0.13 0.128-0.159-0.103c-0.204-0.139-0.374-0.311-0.506-0.51l-0.004-0.007-0.088-0.14 0.127-0.129c0.139-0.143 0.279-0.23 0.374-0.231 0.059 0.006 0.114 0.023 0.162 0.050l-0.002-0.001zM2.944 10.799c0.526 0.138 1.123 0.274 1.527 0.347l0.324 0.059 0.044 0.257c0.069 0.395 0.213 1.034 0.351 1.558 0.069 0.261 0.117 0.482 0.106 0.493-0.051 0.051-0.8-0.411-1.211-0.746-0.593-0.496-1.087-1.086-1.465-1.752l-0.016-0.031c-0.128-0.237-0.146-0.291-0.093-0.291 0.017 0 0.212 0.048 0.433 0.106zM12.385 11.791c0.075 0.128 0.4 0.459 0.548 0.56 0.050 0.030 0.094 0.064 0.133 0.103v0c0 0.007-0.35 0.364-0.779 0.792l-0.78 0.78-0.434 0.062c-0.12 0.022-0.272 0.041-0.425 0.053l-0.017 0.001c0.013-0.17 0.032-0.322 0.058-0.471l-0.004 0.029 0.062-0.433 0.78-0.78c0.429-0.429 0.786-0.78 0.794-0.78s0.036 0.037 0.064 0.084z"></path>
</symbol>
<symbol id="icon-maximize-circle" viewBox="0 0 16 16">
<path d="M7.707 0.845c-1.526 0.067-2.916 0.599-4.045 1.457l0.018-0.013c-0.405 0.304-1.094 0.993-1.397 1.398-0.82 1.072-1.344 2.411-1.428 3.867l-0.001 0.019c-0.047 0.79 0.062 1.843 0.215 2.057 0.165 0.232 0.537 0.257 0.744 0.050 0.15-0.15 0.169-0.267 0.105-0.64-0.069-0.401-0.097-1.292-0.053-1.68 0.137-1.21 0.632-2.391 1.374-3.279 0.313-0.354 0.644-0.675 1-0.967l0.015-0.012c0.681-0.519 1.491-0.909 2.371-1.116l0.043-0.009c0.404-0.087 0.869-0.137 1.345-0.137 0.417 0 0.825 0.038 1.221 0.111l-0.041-0.006c0.219 0.042 0.381-0.004 0.519-0.149 0.081-0.085 0.13-0.201 0.13-0.328 0-0.147-0.066-0.278-0.171-0.366l-0.001-0.001c-0.112-0.099-0.189-0.122-0.589-0.181-0.273-0.040-1.029-0.097-1.149-0.087l-0.226 0.012zM11.217 1.523c-0.234 0.055-0.373 0.234-0.373 0.482 0 0.13 0.014 0.175 0.078 0.267 0.151 0.213 0.185 0.22 1.076 0.23l0.784 0.008-1.601 1.605c-0.881 0.883-1.617 1.635-1.636 1.672-0.022 0.060-0.034 0.129-0.034 0.201 0 0.005 0 0.011 0 0.016l-0-0.001c0 0.329 0.276 0.541 0.615 0.471 0.123-0.025 0.184-0.083 1.746-1.641l1.618-1.615 0.008 0.798c0.008 0.78 0.010 0.799 0.071 0.897 0.238 0.383 0.815 0.295 0.908-0.138 0.020-0.090 0.030-0.605 0.030-1.497 0-1.167-0.006-1.374-0.042-1.458-0.048-0.125-0.143-0.223-0.262-0.275l-0.003-0.001c-0.1-0.046-0.199-0.049-1.493-0.047-0.763 0.001-1.433 0.013-1.49 0.026zM14.39 6.193c-0.159 0.056-0.281 0.182-0.33 0.339l-0.001 0.004c-0.024 0.096-0.020 0.175 0.023 0.424 0.069 0.401 0.097 1.292 0.053 1.68-0.163 1.462-0.81 2.749-1.775 3.72l0-0c-1 0.999-2.3 1.621-3.713 1.774-0.386 0.042-1.26 0.020-1.62-0.041-0.453-0.077-0.579-0.058-0.739 0.111-0.081 0.086-0.13 0.202-0.13 0.329s0.050 0.243 0.131 0.329l-0-0c0.111 0.117 0.19 0.147 0.544 0.204 0.35 0.060 0.753 0.095 1.163 0.095 1.629 0 3.131-0.543 4.335-1.457l-0.018 0.013c0.523-0.42 0.984-0.881 1.39-1.387l0.014-0.017c1.028-1.377 1.531-3.031 1.429-4.706-0.040-0.66-0.116-1.098-0.215-1.237-0.105-0.148-0.35-0.228-0.541-0.177zM5.867 9.526c-0.113 0.024-0.214 0.119-1.74 1.642l-1.62 1.618-0.001-0.72c-0.001-0.746-0.017-0.901-0.109-1.031-0.125-0.175-0.427-0.24-0.629-0.136-0.072 0.044-0.132 0.099-0.18 0.164l-0.001 0.002-0.080 0.113-0.009 1.431c-0.005 0.977 0.001 1.462 0.021 1.53 0.047 0.142 0.147 0.255 0.277 0.317l0.003 0.001c0.1 0.045 0.206 0.049 1.473 0.049 0.899 0 1.412-0.009 1.503-0.029 0.441-0.094 0.522-0.698 0.123-0.911-0.107-0.057-0.144-0.060-0.896-0.068l-0.784-0.008 1.615-1.619c1.558-1.561 1.616-1.622 1.641-1.745 0.081-0.39-0.215-0.682-0.607-0.6z"></path>
</symbol>
<symbol id="icon-ranking" viewBox="0 0 16 16">
<path d="M7.658 0.695c-0.226 0.113-0.33 0.243-0.578 0.72l-0.213 0.411-0.347 0.058c-0.182 0.028-0.337 0.063-0.489 0.106l0.029-0.007c-0.369 0.134-0.604 0.488-0.555 0.838 0.032 0.233 0.154 0.431 0.466 0.758l0.291 0.305-0.077 0.344c-0.094 0.416-0.099 0.621-0.022 0.828 0.116 0.309 0.371 0.49 0.692 0.49 0.249 0.001 0.392-0.050 0.784-0.281l0.346-0.203 0.107 0.055c0.060 0.030 0.222 0.122 0.361 0.203 0.318 0.186 0.48 0.235 0.733 0.222 0.157-0.008 0.216-0.024 0.322-0.090 0.366-0.226 0.449-0.582 0.294-1.26l-0.075-0.328 0.306-0.313c0.329-0.335 0.396-0.438 0.446-0.678 0.010-0.046 0.016-0.098 0.016-0.151 0-0.153-0.046-0.294-0.125-0.412l0.002 0.003c-0.155-0.234-0.364-0.345-0.794-0.421-0.363-0.057-0.489-0.079-0.614-0.103l0.244 0.038c-0.081-0.014-0.099-0.041-0.292-0.42-0.312-0.617-0.517-0.793-0.929-0.793-0.006-0-0.013-0-0.021-0-0.113 0-0.219 0.031-0.31 0.084l0.003-0.002zM8.157 2.12c0.267 0.52 0.393 0.606 1.051 0.719l0.102 0.017-0.213 0.225c-0.351 0.371-0.428 0.619-0.329 1.059 0.029 0.128 0.048 0.233 0.043 0.233s-0.115-0.060-0.244-0.134c-0.27-0.155-0.364-0.185-0.569-0.186-0.2 0-0.344 0.048-0.595 0.197-0.062 0.042-0.134 0.081-0.209 0.114l-0.009 0.003c0.011-0.095 0.026-0.179 0.047-0.261l-0.003 0.014c0.093-0.435 0.018-0.67-0.329-1.019-0.119-0.121-0.212-0.225-0.205-0.232 0.007-0.006 0.126-0.032 0.265-0.056 0.3-0.052 0.521-0.159 0.656-0.317 0.051-0.060 0.155-0.231 0.232-0.382 0.050-0.107 0.1-0.196 0.157-0.282l-0.005 0.008c0.007 0.001 0.078 0.126 0.157 0.28zM6.864 6.188c-0.381 0.047-0.732 0.22-1.026 0.505-0.227 0.222-0.38 0.46-0.47 0.732-0.066 0.201-0.072 0.253-0.082 0.806l-0.011 0.592-1.458 0.011c-1.619 0.012-1.577 0.008-1.977 0.201-0.154 0.075-0.256 0.152-0.443 0.338-0.276 0.274-0.402 0.477-0.495 0.8l-0.062 0.214v4.435l0.080 0.113c0.050 0.068 0.113 0.125 0.184 0.167l0.003 0.002 0.106 0.056 6.707 0.007c4.813 0.005 6.747-0.001 6.849-0.022 0.097-0.016 0.181-0.064 0.244-0.132l0-0c0.16-0.159 0.167-0.233 0.154-1.529-0.011-1.065-0.015-1.134-0.071-1.324-0.093-0.313-0.221-0.518-0.493-0.787-0.187-0.186-0.289-0.263-0.443-0.338-0.4-0.193-0.357-0.189-1.98-0.201l-1.46-0.011v-1.493c0-1.249-0.007-1.526-0.042-1.698-0.147-0.67-0.64-1.198-1.279-1.391l-0.013-0.003c-0.189-0.057-0.252-0.060-1.266-0.067-0.101-0.002-0.219-0.003-0.338-0.003-0.323 0-0.644 0.007-0.963 0.021l0.045-0.002zM9.275 7.265c0.287 0.159 0.423 0.399 0.449 0.792 0.009 0.137 0.007 1.567-0.004 3.176l-0.020 2.927h-3.407l-0.006-2.433c-0.012-4.205-0.016-3.909 0.050-4.050 0.090-0.187 0.237-0.336 0.418-0.426l0.005-0.002 0.16-0.077 2.213 0.015 0.142 0.078zM5.28 12v2.16h-3.44v-1.826c0-2.1-0.011-1.995 0.244-2.25 0.247-0.247 0.199-0.241 1.803-0.243l1.393-0.001v2.16zM13.636 11.894c0.212 0.093 0.377 0.258 0.468 0.464l0.002 0.006c0.050 0.134 0.054 0.206 0.054 0.97v0.826h-3.44v-2.32h1.386c1.327 0 1.391 0.002 1.53 0.054z"></path>
</symbol>
<symbol id="icon-cpu-charge" viewBox="0 0 16 16">
<path d="M5.293 0.84c-0.023 0.007-0.056 0.016-0.090 0.023l-0.009 0.002c-0.089 0.019-0.25 0.156-0.302 0.258-0.030 0.058-0.039 0.198-0.039 0.637 0 0.426-0.008 0.564-0.033 0.571-0.614 0.18-0.87 0.288-1.209 0.509-0.432 0.292-0.773 0.689-0.992 1.154l-0.007 0.017c-0.097 0.203-0.184 0.443-0.247 0.691l-0.006 0.028-0.017 0.092-0.565 0.009c-0.644 0.010-0.712 0.029-0.855 0.231-0.053 0.076-0.084 0.17-0.084 0.271s0.031 0.196 0.085 0.273l-0.001-0.002c0.139 0.196 0.22 0.22 0.782 0.231l0.49 0.009-0.017 0.242c-0.009 0.133-0.017 0.502-0.017 0.821v0.58l-0.473 0.009c-0.543 0.011-0.627 0.036-0.765 0.231-0.065 0.093-0.078 0.136-0.078 0.272s0.013 0.179 0.078 0.272c0.138 0.195 0.222 0.22 0.765 0.231l0.473 0.009v0.58c0 0.319 0.008 0.688 0.017 0.821l0.017 0.242-0.49 0.009c-0.562 0.011-0.643 0.035-0.782 0.231-0.065 0.092-0.078 0.136-0.078 0.272 0 0.135 0.013 0.179 0.078 0.271 0.143 0.202 0.211 0.221 0.855 0.231l0.565 0.009 0.017 0.092c0.009 0.051 0.048 0.185 0.085 0.298 0.356 1.073 1.060 1.733 2.183 2.045l0.213 0.059 0.013 0.584c0.013 0.543 0.018 0.591 0.072 0.678 0.093 0.134 0.245 0.221 0.418 0.221 0.139 0 0.264-0.056 0.356-0.146l-0 0c0.122-0.131 0.141-0.23 0.141-0.732v-0.472l0.26 0.018c0.143 0.009 0.521 0.017 0.84 0.017h0.58v0.484c0 0.464 0.003 0.489 0.064 0.594 0.16 0.273 0.567 0.321 0.781 0.091 0.122-0.13 0.142-0.231 0.142-0.715v-0.454h0.566c0.312 0 0.683-0.008 0.824-0.017l0.258-0.017 0.009 0.503c0.009 0.473 0.013 0.511 0.071 0.604 0.238 0.383 0.816 0.295 0.909-0.138 0.016-0.076 0.029-0.358 0.029-0.627v-0.489l0.095-0.017c0.278-0.070 0.518-0.157 0.746-0.265l-0.025 0.011c0.621-0.29 1.109-0.778 1.392-1.382l0.007-0.017c0.097-0.203 0.184-0.443 0.248-0.693l0.006-0.028 0.017-0.095h0.489c0.269 0 0.551-0.013 0.627-0.029 0.22-0.051 0.381-0.246 0.381-0.478 0-0.135-0.055-0.258-0.143-0.346v0c-0.133-0.133-0.265-0.16-0.792-0.16h-0.416l0.018-0.244c0.009-0.134 0.017-0.506 0.017-0.827v-0.582h0.399c0.219 0 0.46-0.014 0.536-0.030 0.44-0.094 0.522-0.699 0.123-0.91-0.1-0.053-0.16-0.060-0.585-0.069l-0.473-0.010v-0.58c0-0.319-0.008-0.69-0.017-0.824l-0.018-0.244h0.416c0.229 0 0.478-0.013 0.554-0.029 0.44-0.095 0.522-0.699 0.123-0.911-0.103-0.055-0.154-0.060-0.675-0.069l-0.565-0.009-0.017-0.092c-0.069-0.276-0.156-0.516-0.263-0.743l0.010 0.024c-0.296-0.627-0.792-1.119-1.405-1.403l-0.018-0.007c-0.203-0.092-0.682-0.254-0.752-0.254-0.034 0-0.040-0.076-0.040-0.5-0.001-0.689-0.041-0.825-0.274-0.944-0.067-0.036-0.147-0.057-0.232-0.057-0.171 0-0.323 0.086-0.413 0.218l-0.001 0.002-0.080 0.113-0.018 1.016-0.242-0.017c-0.228-0.011-0.495-0.017-0.764-0.017-0.021 0-0.042 0-0.063 0l0.003-0h-0.582l-0.001-0.407c-0.001-0.588-0.048-0.735-0.273-0.85-0.067-0.036-0.147-0.057-0.232-0.057-0.171 0-0.323 0.086-0.413 0.218l-0.001 0.002-0.080 0.113-0.010 0.491-0.009 0.491h-0.58c-0.319 0-0.69 0.008-0.824 0.017l-0.244 0.018v-0.472c0-0.513-0.019-0.603-0.154-0.744-0.057-0.050-0.125-0.088-0.199-0.112l-0.004-0.001c-0.136-0.040-0.144-0.041-0.19-0.026zM10.627 3.234c0.394 0.072 0.703 0.171 0.999 0.319 0.391 0.195 0.626 0.43 0.821 0.821 0.15 0.301 0.248 0.61 0.321 1.012 0.041 0.227 0.045 0.502 0.045 2.614s-0.004 2.387-0.045 2.614c-0.119 0.657-0.336 1.16-0.632 1.464-0.101 0.102-0.21 0.194-0.327 0.276l-0.008 0.005c-0.345 0.219-0.86 0.374-1.46 0.439-0.349 0.039-4.333 0.039-4.682 0-0.849-0.092-1.464-0.345-1.831-0.75-0.177-0.196-0.388-0.607-0.482-0.941-0.161-0.57-0.159-0.531-0.159-3.107 0-2.112 0.004-2.387 0.045-2.614 0.073-0.402 0.171-0.711 0.321-1.012 0.113-0.228 0.175-0.315 0.34-0.48 0.374-0.372 0.971-0.609 1.747-0.692 0.117-0.013 1.233-0.021 2.48-0.018 1.984 0.005 2.297 0.011 2.507 0.050zM6.605 4.188c-1.080 0.078-1.809 0.506-2.153 1.265-0.111 0.263-0.196 0.568-0.242 0.887l-0.002 0.020c-0.049 0.34-0.049 2.943 0 3.28 0.193 1.327 0.825 1.959 2.152 2.152 0.339 0.049 2.941 0.049 3.28 0 1.327-0.193 1.959-0.825 2.152-2.152 0.049-0.339 0.049-2.941 0-3.28-0.154-1.058-0.583-1.654-1.424-1.978-0.24-0.093-0.629-0.166-1.027-0.195-0.422-0.030-2.306-0.029-2.736 0.001zM9.817 5.246c0.43 0.12 0.672 0.303 0.821 0.62 0.172 0.365 0.175 0.408 0.175 2.134 0 1.738-0.003 1.775-0.184 2.149-0.153 0.317-0.372 0.481-0.81 0.605-0.201 0.058-0.24 0.059-1.819 0.059s-1.618-0.001-1.819-0.059c-0.438-0.124-0.657-0.288-0.81-0.605-0.181-0.374-0.184-0.411-0.184-2.149 0-1.4 0.005-1.581 0.047-1.761 0.146-0.621 0.454-0.903 1.122-1.027 0.147-0.027 0.545-0.034 1.724-0.029 1.477 0.005 1.541 0.008 1.737 0.063zM7.787 6.025c-0.058 0.032-0.108 0.069-0.152 0.112l0-0c-0.067 0.073-0.651 1.086-0.749 1.299-0.043 0.091-0.069 0.198-0.069 0.311 0 0.199 0.079 0.38 0.207 0.513l-0-0c0.147 0.163 0.313 0.222 0.673 0.24 0.167 0.008 0.303 0.019 0.303 0.025s-0.107 0.195-0.237 0.422c-0.255 0.444-0.288 0.54-0.243 0.706 0.1 0.371 0.576 0.499 0.831 0.224 0.077-0.084 0.657-1.080 0.763-1.312 0.16-0.349 0.014-0.798-0.315-0.965-0.121-0.062-0.378-0.106-0.619-0.106-0.012 0.001-0.025 0.001-0.039 0.001-0.050 0-0.099-0.006-0.146-0.016l0.004 0.001c0-0.007 0.111-0.207 0.246-0.444 0.224-0.394 0.245-0.443 0.244-0.568-0.001-0.078-0.017-0.152-0.045-0.219l0.001 0.004c-0.125-0.242-0.433-0.348-0.659-0.228z"></path>
</symbol>
</defs>
</svg>
